<?xml version="1.0" encoding="utf-8"?>
<!-- Generator: Adobe Illustrator 22.0.0, SVG Export Plug-In . SVG Version: 6.00 Build 0)  -->
<svg version="1.1" id="Layer_1" xmlns="http://www.w3.org/2000/svg" xmlns:xlink="http://www.w3.org/1999/xlink" x="0px" y="0px"
	 viewBox="0 0 384.2 113.7" style="enable-background:new 0 0 384.2 113.7;" xml:space="preserve">
<style type="text/css">
	.st0{fill:#F7931A;}
	.st1{fill:#4D4D4D;}
	.st2{fill:#66991A;}
	.st3{fill:#FCC103;}
	.st4{fill:#FFFFFF;}
	.st5{fill:#00206B;}
	.st6{fill:#FEFEFE;}
	.st7{fill:#7884D1;}
	.st8{fill:#9DA7DF;}
	.st9{fill:#7785D1;}
	.st10{fill:#5C67C6;}
	.st11{fill:#2E302F;}
	.st12{fill:#828486;}
	.st13{fill:#020707;}
	.st14{fill:#343535;}
	.st15{fill:#BEBEBE;}
	.st16{fill:#626264;}
	.st17{fill:#474D55;}
	.st18{clip-path:url(#SVGID_2_);fill:url(#SVGID_3_);}
	.st19{fill:#9C844E;}
	.st20{fill:#808084;}
	.st21{fill:#86868A;}
	.st22{fill:#9D854E;}
	.st23{fill:#7F7F83;}
	.st24{fill:#0D0D0D;}
	.st25{fill:#0C0C0C;}
	.st26{fill:#9D854F;}
	.st27{fill:#91856A;}
	.st28{fill:#828286;}
	.st29{fill:#A89262;}
	.st30{fill:#AB9768;}
	.st31{fill:#CACACC;}
	.st32{fill:#90846A;}
	.st33{fill:#A6946A;}
	.st34{fill:#818185;}
	.st35{fill:#EDE9E0;}
	.st36{fill:#F1EEE6;}
	.st37{fill:#EFEBE3;}
	.st38{fill:#F2F0E9;}
	.st39{fill:#F0EDE5;}
	.st40{fill:#F4F2EC;}
	.st41{fill:#F2EFE8;}
	.st42{fill:#F3F0EA;}
	.st43{fill:#F1EEE7;}
	.st44{fill:#F5F3EE;}
	.st45{fill:#F6F4EF;}
	.st46{fill:#F6F4F0;}
	.st47{fill:#F7F6F2;}
	.st48{fill:#F7F5F2;}
	.st49{fill:#F1F1F1;}
	.st50{fill:#F6F6F6;}
	.st51{fill:#EEEEEE;}
	.st52{fill:#141414;}
	.st53{fill:#E0E0E0;}
	.st54{fill:#838383;}
	.st55{fill:#101010;}
	.st56{fill:#FBFBFB;}
	.st57{fill:#B8B8B8;}
	.st58{fill:#494949;}
	.st59{fill:#E3E3E3;}
	.st60{fill:#D8D8D8;}
	.st61{fill:#777777;}
	.st62{fill:#F0F0F0;}
	.st63{fill:#858585;}
	.st64{fill:#EBEBEB;}
	.st65{fill:#565656;}
	.st66{fill:#353535;}
	.st67{fill:#EAEAEA;}
	.st68{fill:#878787;}
	.st69{fill:#C3C3C3;}
	.st70{fill:#888888;}
	.st71{fill:#848484;}
	.st72{fill:#F2F2F2;}
	.st73{fill:#EFEFEF;}
	.st74{fill:#F8F8F8;}
	.st75{fill:#111111;}
	.st76{fill:#2E2E2E;}
	.st77{fill:#DCDCDC;}
	.st78{fill:#C0C0C0;}
	.st79{fill:#DEDEDE;}
	.st80{fill:#202020;}
	.st81{fill:#E5E5E5;}
	.st82{fill:#E1E1E1;}
	.st83{fill:#404040;}
	.st84{fill:#3B3B3B;}
	.st85{fill:#6C6C6C;}
	.st86{fill:#CCCCCC;}
	.st87{fill:#B9B9B9;}
	.st88{fill:#C7C7C7;}
	.st89{fill:#FAFAFA;}
	.st90{fill:#868686;}
	.st91{fill:#C1C1C1;}
	.st92{fill:#484848;}
	.st93{fill:#393939;}
	.st94{fill:#B7B7B7;}
	.st95{fill:#1A1A1A;}
	.st96{fill:#AEAEAE;}
	.st97{fill:#1B1B1B;}
	.st98{fill:#0E0E0E;}
	.st99{fill:#C2C2C2;}
	.st100{fill:#C5C5C5;}
	.st101{fill:#919191;}
	.st102{fill:#E4E4E4;}
	.st103{fill:#E7E7E7;}
	.st104{fill:#EDEDED;}
	.st105{fill:#1F1F1F;}
	.st106{fill:#ECECEC;}
	.st107{fill:#4C4C4C;}
	.st108{fill:#D0D0D0;}
	.st109{fill:#7B7B7B;}
	.st110{fill:#C9C9C9;}
</style>
<g>
	<path class="st17" d="M138.9,44.3c-1-0.4-3.2-0.7-5.3-0.7c-6.3,0-12.9,4.9-12.9,11.2v29.7h-14.4V31.7H120v5.3
		c3.2-3.8,9.1-6.3,15.4-6.3c2.1,0,3.2,0.4,4.9,0.4L138.9,44.3L138.9,44.3z M155,3.7c4.9,0,9.1,3.8,9.1,9.1s-4.2,9.1-9.5,9.1
		c-5.3,0-9.5-3.8-9.5-9.1C145.6,7.5,149.8,3.7,155,3.7 M162,84.5h-14.4V31.7H162V84.5z M204,30.6c-5.9,0-11.2,2.1-15.4,5.3v-4.2h-14
		v79.1H189V80.7c4.2,3.2,8.7,4.9,14.4,4.9c7.7,0,15.4-3.5,19.9-9.1c4.2-4.9,6.7-11.2,6.7-18.5C229.9,42.5,218.3,30.6,204,30.6
		 M202.3,72.6c-8.7,0-14.7-5.9-14.7-14.7s5.9-14.7,14.7-14.7c7.7,0,13.6,6.7,13.6,14.7C215.9,66.3,209.6,72.6,202.3,72.6 M302,6.8
		h14.4v77.7H302V6.8z M374.1,76.1c-5.3,5.9-13.6,9.5-21.7,9.5c-15.8,0-27.6-10.8-27.6-27.6c0-14.7,10.1-27.6,25.9-27.6
		c14.7,0,25.2,12.2,25.2,26.9c0,1.4,0,2.8-0.4,4.2h-37.1c0.7,7.3,6.7,12.6,14.4,12.6c5.9,0,10.8-3.5,13.3-5.9L374.1,76.1z
		 M360.8,51.3c-0.4-4.5-4.5-9.5-10.5-9.5c-6,0-10.8,4.5-11.2,9.5H360.8L360.8,51.3z M267.7,30.6c-5.9,0-11.2,2.1-15.4,5.3v-4.2
		h-13.6v79.1H253V80.7c4.2,3.2,8.7,4.9,14.4,4.9c7.7,0,15.4-3.5,19.9-9.1c4.2-4.9,6.7-11.2,6.7-18.5C293.6,42.5,282,30.6,267.7,30.6
		 M265.9,72.6c-8.7,0-14.7-5.9-14.7-14.7s5.9-14.7,14.7-14.7c7.7,0,13.6,6.7,13.6,14.7C279.6,66.3,273.3,72.6,265.9,72.6"/>
	<g>
		<defs>
			<path id="SVGID_1_" d="M58.5,12.4c-5.9,3.5-9.5,9.8-9.5,16.4c0,3.5,1.4,7,3.2,10.1c1.4,2.8,2.1,7.7-2.8,10.1
				c-3.5,2.1-8.1,0.7-10.1-2.8c-2.1-2.8-4.5-5.6-7.7-7.7c-5.9-3.5-12.9-3.5-18.9,0s-9.5,9.8-9.5,16.5s3.5,12.9,9.5,16.4
				c5.9,3.5,12.9,3.5,18.9,0c3.2-1.8,5.6-4.5,7.3-7.7c1.4-2.4,5.3-5.6,10.1-2.8c3.5,2.1,4.5,6.7,2.8,10.1C50,74.4,49,77.9,49,81.4
				c0,6.7,3.5,12.9,9.5,16.4c5.9,3.5,12.9,3.5,18.9,0s9.5-9.8,9.5-16.4c0-6.7-3.5-12.9-9.5-16.4c-3.2-1.8-6.7-2.4-10.5-2.4
				c-3.2,0-7.3-2.1-7.3-7.3c0-4.2,3.2-7.3,7.3-7.3c3.5,0,7.3-0.7,10.5-2.4c5.9-3.5,9.5-9.8,9.5-16.4s-3.5-12.9-9.5-16.4
				C74.5,10.7,71,10,67.9,10C64.7,10,61.2,10.7,58.5,12.4"/>
		</defs>
		<clipPath id="SVGID_2_">
			<use xlink:href="#SVGID_1_"  style="overflow:visible;"/>
		</clipPath>
		
			<linearGradient id="SVGID_3_" gradientUnits="userSpaceOnUse" x1="-702.3883" y1="-28.4861" x2="-699.4467" y2="-28.4861" gradientTransform="matrix(21.373 21.373 21.373 -21.373 15640.8799 14433.8857)">
			<stop  offset="0" style="stop-color:#11AAE2"/>
			<stop  offset="0.594" style="stop-color:#0880B7"/>
			<stop  offset="1" style="stop-color:#016197"/>
		</linearGradient>
		<path class="st18" d="M45.1-32l87.5,87.8l-87.5,87.5l-87.8-87.5L45.1-32z"/>
	</g>
</g>
</svg>
